<svg xmlns="http://www.w3.org/2000/svg" width="1200" height="320" viewBox="0 0 1200 320" role="img" aria-label="NameLucky2205 — AI-агенты, кибербезопасность, своя LLM-инфраструктура">
  <defs>
    <linearGradient id="bg" x1="0" y1="0" x2="1" y2="1">
      <stop offset="0" stop-color="#fcee0a"/><stop offset="0.55" stop-color="#f9e900"/><stop offset="1" stop-color="#fcee0a"/>
    </linearGradient>
    <linearGradient id="line" x1="0" x2="1"><stop offset="0" stop-color="#0a0a0c"/><stop offset="1" stop-color="#00b8c4"/></linearGradient>
    <pattern id="hazard" width="14" height="14" patternUnits="userSpaceOnUse" patternTransform="rotate(45)">
      <rect width="7" height="14" fill="#0a0a0c" fill-opacity="0.9"/>
    </pattern>
    <filter id="soft" x="-50%" y="-50%" width="200%" height="200%"><feGaussianBlur stdDeviation="40"/></filter>
    <clipPath id="frame"><polygon points="26,0 1200,0 1200,294 1174,320 0,320 0,26"/></clipPath>
  </defs>

  <g clip-path="url(#frame)">
    <rect width="1200" height="320" fill="url(#bg)"/>
    <g filter="url(#soft)" opacity="0.18">
      <circle cx="980" cy="60" r="150" fill="#00b8c4"><animateTransform attributeName="transform" type="translate" values="0 0; -40 30; 0 0" dur="16s" repeatCount="indefinite"/></circle>
      <circle cx="120" cy="300" r="130" fill="#00b8c4"><animateTransform attributeName="transform" type="translate" values="0 0; 50 -30; 0 0" dur="19s" repeatCount="indefinite"/></circle>
    </g>
    <text x="700" y="78" font-family="ui-monospace, SFMono-Regular, Menlo, Consolas, 'Liberation Mono', monospace" font-size="14" letter-spacing="3" fill="#0a0a0c" fill-opacity="0.10">55 1C BD E9 FF 7A<animate attributeName="fill-opacity" values="0.10;0.55;0.10" dur="6s" begin="0.0s" repeatCount="indefinite"/></text><text x="700" y="100" font-family="ui-monospace, SFMono-Regular, Menlo, Consolas, 'Liberation Mono', monospace" font-size="14" letter-spacing="3" fill="#0a0a0c" fill-opacity="0.10">BD 55 1C 7A E9 55<animate attributeName="fill-opacity" values="0.10;0.55;0.10" dur="6s" begin="1.2s" repeatCount="indefinite"/></text><text x="700" y="122" font-family="ui-monospace, SFMono-Regular, Menlo, Consolas, 'Liberation Mono', monospace" font-size="14" letter-spacing="3" fill="#0a0a0c" fill-opacity="0.10">1C E9 55 BD 7A FF<animate attributeName="fill-opacity" values="0.10;0.55;0.10" dur="6s" begin="2.4s" repeatCount="indefinite"/></text><text x="700" y="144" font-family="ui-monospace, SFMono-Regular, Menlo, Consolas, 'Liberation Mono', monospace" font-size="14" letter-spacing="3" fill="#0a0a0c" fill-opacity="0.10">7A BD FF 1C 55 E9<animate attributeName="fill-opacity" values="0.10;0.55;0.10" dur="6s" begin="3.6s" repeatCount="indefinite"/></text><text x="700" y="166" font-family="ui-monospace, SFMono-Regular, Menlo, Consolas, 'Liberation Mono', monospace" font-size="14" letter-spacing="3" fill="#0a0a0c" fill-opacity="0.10">E9 7A 55 FF BD 1C<animate attributeName="fill-opacity" values="0.10;0.55;0.10" dur="6s" begin="4.8s" repeatCount="indefinite"/></text>

    <rect x="0" y="0" width="1200" height="6" fill="url(#hazard)"/>
    <rect x="0" y="314" width="1200" height="6" fill="url(#hazard)"/>

    <path d="M0 276 H40 l8 -6 l8 6 H92 l5 -40 l9 72 l5 -32 H148 l12 -12 l12 12 H340 l8 -6 l8 6 H392 l5 -40 l9 72 l5 -32 H448 l12 -12 l12 12 H640 l8 -6 l8 6 H692 l5 -40 l9 72 l5 -32 H748 l12 -12 l12 12 H940 l8 -6 l8 6 H992 l5 -40 l9 72 l5 -32 H1048 l12 -12 l12 12 H1200" fill="none" stroke="#00b8c4" stroke-opacity="0.18" stroke-width="2" stroke-linejoin="round"/>
    <path d="M0 276 H40 l8 -6 l8 6 H92 l5 -40 l9 72 l5 -32 H148 l12 -12 l12 12 H340 l8 -6 l8 6 H392 l5 -40 l9 72 l5 -32 H448 l12 -12 l12 12 H640 l8 -6 l8 6 H692 l5 -40 l9 72 l5 -32 H748 l12 -12 l12 12 H940 l8 -6 l8 6 H992 l5 -40 l9 72 l5 -32 H1048 l12 -12 l12 12 H1200" fill="none" stroke="url(#line)" stroke-width="2.5" stroke-linejoin="round" stroke-linecap="round" pathLength="1" stroke-dasharray="0.22 0.78">
      <animate attributeName="stroke-dashoffset" from="1" to="0" dur="7s" repeatCount="indefinite"/>
    </path>

    <text x="72" y="82" font-family="ui-monospace, SFMono-Regular, Menlo, Consolas, 'Liberation Mono', monospace" font-size="15" letter-spacing="2" fill="#00b8c4">// NETRUNNER ~ $ whoami</text>
    <defs><clipPath id="ga"><rect x="0" y="88" width="1200" height="18"><animate attributeName="y" values="88;118;100;136;88" calcMode="discrete" dur="2.3s" repeatCount="indefinite"/></rect></clipPath><clipPath id="gb"><rect x="0" y="88" width="1200" height="18"><animate attributeName="y" values="130;88;112;94;130" calcMode="discrete" dur="1.7s" repeatCount="indefinite"/></rect></clipPath></defs><text x="72" y="148" font-family="-apple-system, BlinkMacSystemFont, 'Segoe UI', Ubuntu, Helvetica, Arial, sans-serif" font-size="60" font-weight="800" letter-spacing="-1" fill="#0a0a0c">NameLucky2205<tspan fill="#00b8c4" font-weight="400">▌<animate attributeName="opacity" values="1;1;0;0" keyTimes="0;0.5;0.5;1" dur="1.1s" repeatCount="indefinite"/></tspan></text><g clip-path="url(#ga)"><text x="69" y="148" font-family="-apple-system, BlinkMacSystemFont, 'Segoe UI', Ubuntu, Helvetica, Arial, sans-serif" font-size="60" font-weight="800" letter-spacing="-1" fill="#00b8c4">NameLucky2205<tspan fill="#00b8c4" font-weight="400">▌<animate attributeName="opacity" values="1;1;0;0" keyTimes="0;0.5;0.5;1" dur="1.1s" repeatCount="indefinite"/></tspan></text></g><g clip-path="url(#gb)"><text x="75" y="149" font-family="-apple-system, BlinkMacSystemFont, 'Segoe UI', Ubuntu, Helvetica, Arial, sans-serif" font-size="60" font-weight="800" letter-spacing="-1" fill="#ff003c" fill-opacity="0.85">NameLucky2205<tspan fill="#00b8c4" font-weight="400">▌<animate attributeName="opacity" values="1;1;0;0" keyTimes="0;0.5;0.5;1" dur="1.1s" repeatCount="indefinite"/></tspan></text></g>
    <text x="72" y="190" font-family="-apple-system, BlinkMacSystemFont, 'Segoe UI', Ubuntu, Helvetica, Arial, sans-serif" font-size="22" fill="#1c1c20">AI-агенты · кибербезопасность · своя LLM-инфраструктура</text>
    <g transform="translate(72 212)"><polygon points="7,0 76,0 76,21 69,28 0,28 0,7" fill="#0a0a0c" fill-opacity="0.05" stroke="#0a0a0c" stroke-opacity="0.7" stroke-width="1.2"/><text x="38.0" y="18.5" text-anchor="middle" font-family="ui-monospace, SFMono-Regular, Menlo, Consolas, 'Liberation Mono', monospace" font-size="13" fill="#0a0a0c">AVATEK</text></g><g transform="translate(158 212)"><polygon points="7,0 68,0 68,21 61,28 0,28 0,7" fill="#0a0a0c" fill-opacity="0.05" stroke="#0a0a0c" stroke-opacity="0.7" stroke-width="1.2"/><text x="34.0" y="18.5" text-anchor="middle" font-family="ui-monospace, SFMono-Regular, Menlo, Consolas, 'Liberation Mono', monospace" font-size="13" fill="#0a0a0c">Pulse</text></g><g transform="translate(236 212)"><polygon points="7,0 126,0 126,21 119,28 0,28 0,7" fill="#0a0a0c" fill-opacity="0.05" stroke="#0a0a0c" stroke-opacity="0.7" stroke-width="1.2"/><text x="63.0" y="18.5" text-anchor="middle" font-family="ui-monospace, SFMono-Regular, Menlo, Consolas, 'Liberation Mono', monospace" font-size="13" fill="#0a0a0c">Pantheon LLM</text></g><g transform="translate(372 212)"><polygon points="7,0 101,0 101,21 94,28 0,28 0,7" fill="#0a0a0c" fill-opacity="0.05" stroke="#0a0a0c" stroke-opacity="0.7" stroke-width="1.2"/><text x="50.5" y="18.5" text-anchor="middle" font-family="ui-monospace, SFMono-Regular, Menlo, Consolas, 'Liberation Mono', monospace" font-size="13" fill="#0a0a0c">AVAREANGE</text></g><g transform="translate(483 212)"><polygon points="7,0 101,0 101,21 94,28 0,28 0,7" fill="#0a0a0c" fill-opacity="0.05" stroke="#0a0a0c" stroke-opacity="0.7" stroke-width="1.2"/><text x="50.5" y="18.5" text-anchor="middle" font-family="ui-monospace, SFMono-Regular, Menlo, Consolas, 'Liberation Mono', monospace" font-size="13" fill="#0a0a0c">Mr. Robot</text></g><g transform="translate(594 212)"><polygon points="7,0 93,0 93,21 86,28 0,28 0,7" fill="#0a0a0c" fill-opacity="0.05" stroke="#0a0a0c" stroke-opacity="0.7" stroke-width="1.2"/><text x="46.5" y="18.5" text-anchor="middle" font-family="ui-monospace, SFMono-Regular, Menlo, Consolas, 'Liberation Mono', monospace" font-size="13" fill="#0a0a0c">LabStock</text></g>

    <g transform="translate(920 38)">
      <polygon points="18,0 210,0 210,226 192,244 0,244 0,18" fill="#0a0a0c" stroke="#0a0a0c" stroke-width="1.5"/>
      <g transform="translate(-2 -6) scale(0.84)"><g>
    <defs>
      <filter id="hdglow" x="-40%" y="-40%" width="180%" height="180%"><feGaussianBlur stdDeviation="4"/></filter>
      <linearGradient id="hdvisor" x1="0" x2="1"><stop offset="0" stop-color="#00b8c4" stop-opacity="0.2"/><stop offset="0.5" stop-color="#00b8c4"/><stop offset="1" stop-color="#00b8c4" stop-opacity="0.2"/></linearGradient>
    </defs>
    <path d="M22 262 L60 206 L196 206 L234 262 Z" fill="#17171e" stroke="#00f0ff" stroke-width="2.5" stroke-linejoin="round"/>
    <path d="M128 20 C116 42 82 60 66 110 C58 138 54 174 52 208 L204 208 C202 174 198 138 190 110 C174 60 140 42 128 20 Z" fill="#17171e" stroke="#00f0ff" stroke-width="2.5" stroke-linejoin="round"/>
    <path d="M128 60 C114 74 98 98 93 126 L90 190 L166 190 L163 126 C158 98 142 74 128 60 Z" fill="#08080a"/>
    <g stroke="#00b8c4" stroke-width="1.5" opacity="0.55"><line x1="110" y1="160" x2="146" y2="160"/><line x1="112" y1="168" x2="144" y2="168"/><line x1="116" y1="176" x2="140" y2="176"/></g>
    <g stroke="#fcee0a" stroke-width="1.6" fill="none" stroke-linecap="round">
      <polyline points="70,120 84,120 92,108 104,108"/><polyline points="66,150 80,150 88,140"/>
      <polyline points="186,120 172,120 164,108 152,108"/><polyline points="190,150 176,150 168,140"/>
      <polyline points="60,186 78,186 86,178"/><polyline points="196,186 178,186 170,178"/>
    </g>
    <g fill="#fcee0a"><circle cx="104" cy="108" r="2.6"/><circle cx="152" cy="108" r="2.6"/><circle cx="88" cy="140" r="2.2"/><circle cx="168" cy="140" r="2.2"/><circle cx="86" cy="178" r="2.2"/><circle cx="170" cy="178" r="2.2"/></g>
    <polygon points="90,126 166,126 162,142 94,142" fill="#00b8c4" opacity="0.7" filter="url(#hdglow)"/>
    <polygon points="92,128 164,128 160,140 96,140" fill="url(#hdvisor)">
      <animate attributeName="opacity" values="1;1;0.55;1;1;0.8;1" dur="3.4s" repeatCount="indefinite"/>
    </polygon>
    <rect x="96" y="148" width="64" height="2" fill="#fcee0a" opacity="0.9"/>
    <rect x="196" y="214" width="14" height="10" fill="#00b8c4"/>
    <path d="M210 219 C232 219 240 234 240 262" fill="none" stroke="#00b8c4" stroke-width="2.5"/>
    <rect x="40" y="96" width="176" height="3" fill="#00b8c4" opacity="0"><animate attributeName="opacity" values="0;0;1;0;0;0;1;0" calcMode="discrete" dur="2.9s" repeatCount="indefinite"/></rect>
    <rect x="46" y="164" width="164" height="3" fill="#ff003c" opacity="0"><animate attributeName="opacity" values="0;1;0;0;0;1;0;0" calcMode="discrete" dur="3.7s" repeatCount="indefinite"/></rect>
  </g></g>
      <text x="105" y="232" text-anchor="middle" font-family="ui-monospace, SFMono-Regular, Menlo, Consolas, 'Liberation Mono', monospace" font-size="12" letter-spacing="4" fill="#00b8c4">NETRUNNER</text>
    </g>
  </g>
</svg>
